<?xml version="1.0" encoding="utf-8"?>
<!-- Generator: Adobe Illustrator 23.0.2, SVG Export Plug-In . SVG Version: 6.00 Build 0)  -->
<svg version="1.1" id="Capa_1" xmlns="http://www.w3.org/2000/svg" xmlns:xlink="http://www.w3.org/1999/xlink" x="0px" y="0px"
	 viewBox="0 0 73.3 19.6" style="enable-background:new 0 0 73.3 19.6;" xml:space="preserve">
<style type="text/css">
	.st0{fill:#1A151A;}
</style>
<g>
	<path class="st0" d="M22.8,3l-0.3-1.1c-0.1-0.3-0.2-0.6-0.2-0.8h0c-0.1,0.3-0.1,0.6-0.2,0.8L21.7,3H22.8z M21.6,3.6l-0.4,1.2h-0.8
		l1.4-4.4h1l1.4,4.4h-0.9l-0.4-1.2H21.6z"/>
	<path class="st0" d="M25.4,1.7l0.5,1.6c0.1,0.3,0.2,0.5,0.2,0.8h0c0.1-0.3,0.1-0.5,0.2-0.8l0.5-1.6h0.8l-1.2,3.2h-0.8l-1.2-3.2
		H25.4z"/>
	<path class="st0" d="M30.1,3.3c-0.6,0-1.1,0.1-1.1,0.6c0,0.3,0.2,0.5,0.5,0.5c0.3,0,0.6-0.2,0.6-0.4c0-0.1,0-0.1,0-0.2V3.3z
		 M30.9,4.1c0,0.3,0,0.6,0.1,0.8h-0.7l-0.1-0.4h0c-0.2,0.2-0.5,0.4-0.9,0.4c-0.6,0-1-0.5-1-0.9c0-0.8,0.7-1.2,1.9-1.2V2.8
		c0-0.2-0.1-0.6-0.6-0.6c-0.3,0-0.6,0.1-0.8,0.2l-0.2-0.5c0.2-0.1,0.6-0.3,1.1-0.3c1,0,1.3,0.6,1.3,1.3V4.1z"/>
	<path class="st0" d="M32,1.7h0.8v3.2H32V1.7z M32.4,1.3c-0.3,0-0.4-0.2-0.4-0.4c0-0.2,0.2-0.4,0.4-0.4c0.3,0,0.4,0.2,0.4,0.4
		C32.9,1.1,32.7,1.3,32.4,1.3L32.4,1.3z"/>
	<rect x="34" y="0.3" class="st0" width="0.8" height="4.6"/>
	<path class="st0" d="M37.6,3.3c-0.6,0-1.1,0.1-1.1,0.6c0,0.3,0.2,0.5,0.5,0.5c0.3,0,0.6-0.2,0.6-0.4c0-0.1,0-0.1,0-0.2V3.3z
		 M38.4,4.1c0,0.3,0,0.6,0.1,0.8h-0.7l-0.1-0.4h0c-0.2,0.2-0.5,0.4-0.9,0.4c-0.6,0-1-0.5-1-0.9c0-0.8,0.7-1.2,1.9-1.2V2.8
		c0-0.2-0.1-0.6-0.6-0.6c-0.3,0-0.6,0.1-0.8,0.2l-0.2-0.5c0.2-0.1,0.6-0.3,1.1-0.3c1,0,1.3,0.6,1.3,1.3V4.1z"/>
	<path class="st0" d="M40.3,3.6c0,0.1,0,0.1,0,0.2c0.1,0.3,0.4,0.6,0.7,0.6c0.5,0,0.8-0.4,0.8-1c0-0.6-0.3-1-0.8-1
		c-0.3,0-0.6,0.2-0.7,0.6c0,0.1,0,0.1,0,0.2V3.6z M39.5,0.3h0.8v1.9h0c0.2-0.3,0.5-0.5,1-0.5c0.8,0,1.3,0.6,1.3,1.6
		c0,1.1-0.7,1.7-1.4,1.7c-0.4,0-0.8-0.2-1-0.5h0l0,0.5h-0.7c0-0.2,0-0.6,0-0.9V0.3z"/>
	<rect x="43.6" y="0.3" class="st0" width="0.8" height="4.6"/>
	<path class="st0" d="M47.5,3c0-0.3-0.1-0.8-0.7-0.8c-0.5,0-0.7,0.4-0.7,0.8H47.5z M46.1,3.5c0,0.6,0.5,0.8,1,0.8
		c0.4,0,0.6-0.1,0.9-0.1L48,4.7c-0.3,0.1-0.6,0.2-1.1,0.2c-1,0-1.6-0.6-1.6-1.6c0-0.9,0.5-1.7,1.5-1.7c1,0,1.4,0.8,1.4,1.5
		c0,0.1,0,0.3,0,0.3H46.1z"/>
	<path class="st0" d="M52.2,4.4c0.5,0,0.8-0.4,0.8-1.1c0-0.5-0.2-1.1-0.8-1.1c-0.6,0-0.8,0.6-0.8,1.1C51.4,3.9,51.7,4.4,52.2,4.4
		L52.2,4.4z M52.2,4.9c-0.9,0-1.6-0.6-1.6-1.6c0-1,0.7-1.7,1.6-1.7c0.9,0,1.6,0.7,1.6,1.6C53.8,4.4,53,4.9,52.2,4.9L52.2,4.9z"/>
	<path class="st0" d="M54.7,2.6c0-0.4,0-0.7,0-0.9h0.7l0,0.5h0c0.1-0.2,0.5-0.5,1-0.5C57,1.6,57.6,2,57.6,3v1.9h-0.8V3.1
		c0-0.5-0.2-0.8-0.6-0.8c-0.3,0-0.5,0.2-0.6,0.5c0,0.1,0,0.2,0,0.3v1.9h-0.8V2.6z"/>
	<path class="st0" d="M61.3,0.9v0.8H62v0.6h-0.8v1.4c0,0.4,0.1,0.6,0.4,0.6c0.1,0,0.2,0,0.3,0l0,0.6c-0.1,0-0.3,0.1-0.6,0.1
		c-0.3,0-0.5-0.1-0.7-0.3c-0.2-0.2-0.3-0.5-0.3-0.9V2.3H60V1.7h0.4V1.1L61.3,0.9z"/>
	<path class="st0" d="M62.9,0.3h0.8v1.9h0c0.1-0.1,0.2-0.3,0.4-0.4c0.2-0.1,0.4-0.1,0.6-0.1c0.5,0,1.1,0.4,1.1,1.4v1.9H65V3.1
		c0-0.5-0.2-0.8-0.6-0.8c-0.3,0-0.5,0.2-0.6,0.4c0,0.1,0,0.2,0,0.2v1.9h-0.8V0.3z"/>
	<path class="st0" d="M68.8,3c0-0.3-0.1-0.8-0.7-0.8c-0.5,0-0.7,0.4-0.7,0.8H68.8z M67.5,3.5c0,0.6,0.5,0.8,1,0.8
		c0.4,0,0.6-0.1,0.9-0.1l0.1,0.5c-0.3,0.1-0.6,0.2-1.1,0.2c-1,0-1.6-0.6-1.6-1.6c0-0.9,0.5-1.7,1.5-1.7c1,0,1.4,0.8,1.4,1.5
		c0,0.1,0,0.3,0,0.3H67.5z"/>
	<path class="st0" d="M11.6,9.1c0-2.2,1.8-3.2,1.9-3.3c-1-1.5-2.6-1.7-3.1-1.7C9,4,7.8,4.9,7.1,4.9c-0.7,0-1.7-0.8-2.8-0.8
		C2.8,4.2,1.5,5,0.7,6.3C-0.8,9,0.3,12.8,1.8,15c0.7,1,1.6,2.2,2.7,2.2c1.1,0,1.5-0.7,2.8-0.7c1.3,0,1.7,0.7,2.8,0.7
		c1.2,0,1.9-1,2.6-2.1c0.8-1.2,1.2-2.4,1.2-2.4C13.9,12.6,11.7,11.7,11.6,9.1"/>
	<path class="st0" d="M9.5,2.7C10.1,2,10.5,1,10.4,0C9.5,0,8.5,0.6,7.8,1.3C7.3,1.9,6.8,3,6.9,3.9C7.9,4,8.9,3.5,9.5,2.7"/>
	<path class="st0" d="M24.8,13.2L24,10.9c-0.1-0.2-0.2-0.8-0.4-1.7h0c-0.1,0.4-0.2,0.9-0.4,1.7l-0.7,2.3H24.8z M27.4,17h-1.5
		l-0.8-2.6h-2.9L21.4,17h-1.5L22.8,8h1.8L27.4,17z"/>
	<path class="st0" d="M33.3,13.7c0-0.6-0.1-1.1-0.4-1.5c-0.3-0.4-0.7-0.6-1.2-0.6c-0.4,0-0.7,0.1-1,0.3c-0.3,0.2-0.5,0.5-0.6,0.9
		c0,0.2-0.1,0.3-0.1,0.4v1.1c0,0.5,0.1,0.9,0.4,1.2c0.3,0.3,0.7,0.5,1.1,0.5c0.5,0,1-0.2,1.3-0.6C33.2,14.9,33.3,14.4,33.3,13.7
		 M34.8,13.7c0,1.1-0.3,2-0.9,2.6c-0.5,0.6-1.2,0.8-2,0.8c-0.8,0-1.5-0.3-1.8-0.9h0v3.4h-1.4v-6.9c0-0.7,0-1.4-0.1-2.1h1.3l0.1,1h0
		c0.5-0.8,1.2-1.1,2.2-1.1c0.8,0,1.4,0.3,1.9,0.9C34.5,11.9,34.8,12.7,34.8,13.7"/>
	<path class="st0" d="M40.7,13.7c0-0.6-0.1-1.1-0.4-1.5c-0.3-0.4-0.7-0.6-1.2-0.6c-0.4,0-0.7,0.1-1,0.3c-0.3,0.2-0.5,0.5-0.6,0.9
		c0,0.2-0.1,0.3-0.1,0.4v1.1c0,0.5,0.1,0.9,0.4,1.2c0.3,0.3,0.7,0.5,1.1,0.5c0.5,0,1-0.2,1.3-0.6C40.6,14.9,40.7,14.4,40.7,13.7
		 M42.2,13.7c0,1.1-0.3,2-0.9,2.6c-0.5,0.6-1.2,0.8-2,0.8c-0.8,0-1.5-0.3-1.8-0.9h0v3.4H36v-6.9c0-0.7,0-1.4-0.1-2.1h1.3l0.1,1h0
		c0.5-0.8,1.2-1.1,2.2-1.1c0.8,0,1.4,0.3,1.9,0.9C41.9,11.9,42.2,12.7,42.2,13.7"/>
	<path class="st0" d="M50.4,14.5c0,0.8-0.3,1.4-0.8,1.9c-0.6,0.5-1.4,0.8-2.4,0.8c-1,0-1.7-0.2-2.3-0.6l0.3-1.2
		c0.6,0.4,1.3,0.6,2.1,0.6c0.5,0,1-0.1,1.3-0.4c0.3-0.2,0.4-0.6,0.4-1c0-0.4-0.1-0.7-0.4-0.9c-0.2-0.2-0.7-0.5-1.2-0.7
		c-1.6-0.6-2.3-1.4-2.3-2.6c0-0.7,0.3-1.3,0.8-1.8c0.5-0.5,1.3-0.7,2.2-0.7c0.8,0,1.5,0.1,2,0.4l-0.4,1.2c-0.5-0.3-1.1-0.4-1.7-0.4
		c-0.5,0-0.9,0.1-1.2,0.4c-0.2,0.2-0.4,0.5-0.4,0.8c0,0.4,0.1,0.6,0.4,0.9c0.2,0.2,0.7,0.4,1.3,0.7c0.8,0.3,1.3,0.7,1.7,1.1
		C50.2,13.3,50.4,13.8,50.4,14.5"/>
	<path class="st0" d="M55.1,11.6h-1.6v3.1c0,0.8,0.3,1.2,0.8,1.2c0.3,0,0.5,0,0.6-0.1l0,1.1c-0.3,0.1-0.7,0.2-1.1,0.2
		c-0.6,0-1-0.2-1.3-0.5c-0.3-0.3-0.5-0.9-0.5-1.7v-3.2h-0.9v-1.1h0.9V9.4l1.4-0.4v1.6h1.6V11.6z"/>
	<path class="st0" d="M60.8,13.7c0-0.6-0.1-1.1-0.4-1.5c-0.3-0.5-0.7-0.8-1.3-0.8c-0.6,0-1,0.3-1.3,0.8c-0.3,0.4-0.4,0.9-0.4,1.6
		c0,0.6,0.1,1.1,0.4,1.5c0.3,0.5,0.7,0.8,1.3,0.8c0.5,0,1-0.3,1.3-0.8C60.6,14.8,60.8,14.3,60.8,13.7 M62.2,13.7
		c0,1-0.3,1.8-0.8,2.4c-0.6,0.7-1.4,1-2.4,1c-0.9,0-1.7-0.3-2.3-0.9c-0.6-0.6-0.8-1.4-0.8-2.4c0-1,0.3-1.8,0.9-2.4
		c0.6-0.6,1.4-1,2.3-1c0.9,0,1.7,0.3,2.3,0.9C62,11.9,62.2,12.7,62.2,13.7"/>
	<path class="st0" d="M66.9,11.8c-0.1,0-0.3,0-0.4,0c-0.5,0-0.9,0.2-1.2,0.6c-0.2,0.3-0.4,0.8-0.4,1.3V17h-1.4l0-4.4
		c0-0.7,0-1.4-0.1-2h1.2l0.1,1.2h0c0.2-0.4,0.4-0.8,0.7-1c0.3-0.2,0.7-0.3,1-0.3c0.1,0,0.3,0,0.4,0V11.8z"/>
	<path class="st0" d="M71.9,13.1c0-0.4-0.1-0.8-0.3-1.1c-0.2-0.4-0.6-0.6-1.1-0.6c-0.5,0-0.8,0.2-1.1,0.6c-0.2,0.3-0.4,0.7-0.4,1.1
		H71.9z M73.3,13.4c0,0.3,0,0.5-0.1,0.6h-4.3c0,0.6,0.2,1.1,0.6,1.5c0.4,0.3,0.8,0.4,1.4,0.4c0.6,0,1.2-0.1,1.7-0.3l0.2,1
		c-0.6,0.3-1.3,0.4-2.2,0.4c-1,0-1.8-0.3-2.3-0.9c-0.6-0.6-0.9-1.4-0.9-2.4c0-1,0.3-1.8,0.8-2.4c0.6-0.7,1.3-1,2.2-1
		c0.9,0,1.6,0.3,2.1,1C73.1,12,73.3,12.6,73.3,13.4"/>
</g>
</svg>
