<?xml version="1.0" encoding="utf-8"?>
<!-- Generator: Adobe Illustrator 23.0.2, SVG Export Plug-In . SVG Version: 6.00 Build 0)  -->
<svg version="1.1" id="Capa_1" xmlns="http://www.w3.org/2000/svg" xmlns:xlink="http://www.w3.org/1999/xlink" x="0px" y="0px"
	 viewBox="0 0 77.4 18.6" style="enable-background:new 0 0 77.4 18.6;" xml:space="preserve">
<style type="text/css">
	.st0{fill:#1A151A;}
</style>
<g>
	<path class="st0" d="M64.8,15.4H66V7.1h-1.2V15.4z M76,10.1l-1.4,3.6h0l-1.5-3.6h-1.3l2.2,5.1l-1.3,2.8H74l3.4-7.9H76z M69,14.5
		c-0.4,0-1-0.2-1-0.7c0-0.6,0.7-0.9,1.3-0.9c0.5,0,0.8,0.1,1.1,0.3C70.3,13.9,69.7,14.5,69,14.5 M69.1,9.9c-0.9,0-1.8,0.4-2.2,1.3
		l1.1,0.5c0.2-0.5,0.7-0.6,1.1-0.6c0.6,0,1.3,0.4,1.3,1.1v0.1c-0.2-0.1-0.7-0.3-1.3-0.3c-1.2,0-2.4,0.7-2.4,1.9c0,1.1,1,1.8,2.1,1.8
		c0.8,0,1.3-0.4,1.6-0.8h0v0.6h1.2v-3.2C71.6,10.7,70.5,9.9,69.1,9.9 M61.4,11.1h-1.8V8.2h1.8c0.9,0,1.5,0.8,1.5,1.4
		C62.9,10.3,62.3,11.1,61.4,11.1 M61.4,7.1h-3v8.4h1.2v-3.2h1.7c1.4,0,2.7-1,2.7-2.6C64.1,8.1,62.8,7.1,61.4,7.1 M45.1,14.5
		c-0.9,0-1.6-0.7-1.6-1.7c0-1,0.7-1.7,1.6-1.7c0.8,0,1.5,0.7,1.5,1.7C46.6,13.7,45.9,14.5,45.1,14.5 M46.5,10.5L46.5,10.5
		c-0.3-0.3-0.9-0.6-1.5-0.6c-1.4,0-2.7,1.2-2.7,2.9c0,1.6,1.3,2.8,2.7,2.8c0.7,0,1.2-0.3,1.5-0.6h0v0.4c0,1.1-0.6,1.7-1.5,1.7
		c-0.8,0-1.2-0.5-1.4-1l-1.1,0.5c0.3,0.8,1.1,1.7,2.5,1.7c1.5,0,2.7-0.9,2.7-3v-5.1h-1.2V10.5z M48.6,15.4h1.2V7.1h-1.2V15.4z
		 M51.6,12.6c0-1.1,0.9-1.7,1.5-1.7c0.5,0,0.9,0.2,1.1,0.6L51.6,12.6z M55.5,11.7c-0.2-0.6-1-1.8-2.4-1.8c-1.5,0-2.7,1.2-2.7,2.8
		c0,1.6,1.2,2.8,2.8,2.8c1.3,0,2.1-0.8,2.4-1.3l-1-0.6c-0.3,0.5-0.8,0.8-1.4,0.8s-1.1-0.3-1.4-0.9l3.8-1.6L55.5,11.7z M25.2,10.8V12
		h2.9c-0.1,0.7-0.3,1.2-0.7,1.5c-0.4,0.4-1.1,0.9-2.2,0.9c-1.8,0-3.2-1.4-3.2-3.2c0-1.8,1.4-3.2,3.2-3.2c1,0,1.7,0.4,2.2,0.9L28.3,8
		c-0.7-0.7-1.7-1.2-3-1.2c-2.4,0-4.5,2-4.5,4.4c0,2.4,2,4.4,4.5,4.4c1.3,0,2.3-0.4,3.1-1.2c0.8-0.8,1-1.9,1-2.8c0-0.3,0-0.5-0.1-0.8
		H25.2z M32.6,14.5c-0.9,0-1.6-0.7-1.6-1.7c0-1,0.7-1.7,1.6-1.7c0.9,0,1.6,0.7,1.6,1.7C34.3,13.7,33.5,14.5,32.6,14.5 M32.6,9.9
		c-1.6,0-2.9,1.2-2.9,2.8c0,1.6,1.3,2.8,2.9,2.8c1.6,0,2.9-1.2,2.9-2.8C35.5,11.1,34.2,9.9,32.6,9.9 M38.9,14.5
		c-0.9,0-1.6-0.7-1.6-1.7c0-1,0.7-1.7,1.6-1.7c0.9,0,1.6,0.7,1.6,1.7C40.5,13.7,39.7,14.5,38.9,14.5 M38.9,9.9
		c-1.6,0-2.9,1.2-2.9,2.8c0,1.6,1.3,2.8,2.9,2.8c1.6,0,2.9-1.2,2.9-2.8C41.7,11.1,40.4,9.9,38.9,9.9"/>
	<path class="st0" d="M0.3,0.4C0.1,0.6,0,0.9,0,1.3v14.8c0,0.4,0.1,0.7,0.3,0.9l0,0l8.3-8.3V8.7V8.6L0.3,0.4L0.3,0.4z"/>
	<path class="st0" d="M11.4,11.6L8.6,8.8V8.7V8.6l2.8-2.8l0.1,0l3.3,1.9c0.9,0.5,0.9,1.4,0,1.9L11.4,11.6L11.4,11.6z"/>
	<path class="st0" d="M11.5,11.5L8.6,8.7L0.3,17c0.3,0.3,0.8,0.4,1.4,0L11.5,11.5z"/>
	<path class="st0" d="M11.5,5.9L1.7,0.4C1.1,0,0.6,0.1,0.3,0.4l8.3,8.3L11.5,5.9z"/>
	<path class="st0" d="M24,0.9c-0.3-0.2-0.6-0.4-0.9-0.4c-0.8,0-1.5,0.7-1.5,1.5s0.6,1.5,1.5,1.5c0.7,0,1.2-0.4,1.3-1.1h-1.1V2h1.7
		c0,1.4-0.7,2-1.9,2c-1.1,0-2-0.9-2-2c0-1.1,0.9-2,2-2c0.5,0,1,0.2,1.3,0.5L24,0.9z"/>
	<polygon class="st0" points="27.9,0 27.9,0.5 26.1,0.5 26.1,1.8 27.7,1.8 27.7,2.3 26.1,2.3 26.1,3.5 28,3.5 28,4 25.6,4 25.6,0 	
		"/>
	<polygon class="st0" points="31.4,0 31.4,0.5 30.2,0.5 30.2,4 29.7,4 29.7,0.5 28.5,0.5 28.5,0 	"/>
	<rect x="33.4" y="0" class="st0" width="0.5" height="3.9"/>
	<polygon class="st0" points="37.5,0 37.5,0.5 36.4,0.5 36.4,4 35.8,4 35.8,0.5 34.6,0.5 34.6,0 	"/>
	<path class="st0" d="M41.3,3.5c0.8,0,1.5-0.7,1.5-1.5c0-0.8-0.6-1.5-1.5-1.5c-0.8,0-1.5,0.7-1.5,1.5C39.8,2.9,40.5,3.5,41.3,3.5
		 M41.3,0c1.1,0,2,0.9,2,2c0,1.1-0.9,2-2,2c-1.1,0-2-0.9-2-2C39.3,0.9,40.2,0,41.3,0"/>
	<polygon class="st0" points="46.4,4 44.6,1 44.6,4 44.1,4 44.1,0 44.6,0 46.4,3 46.4,0 46.9,0 46.9,4 	"/>
</g>
</svg>
